<mxfile host="app.diagrams.net" agent="Mozilla/5.0 (Windows NT 10.0; Win64; x64) AppleWebKit/537.36 (KHTML, like Gecko) Chrome/131.0.0.0 Safari/537.36" version="26.0.2">
  <diagram name="Page-1" id="QIYhUOBuRmmIrT_QKTTR">
    <mxGraphModel dx="-17191" dy="-315" grid="1" gridSize="10" guides="1" tooltips="1" connect="1" arrows="1" fold="1" page="1" pageScale="1" pageWidth="850" pageHeight="1100" math="0" shadow="0">
      <root>
        <mxCell id="0" />
        <mxCell id="1" parent="0" />
        <mxCell id="urwxPss4SStaSpPDpani-22" value="&lt;div&gt;&lt;span style=&quot;background-color: transparent; color: light-dark(rgb(51, 51, 51), rgb(193, 193, 193));&quot;&gt;10) Cursada 2024 - 1ra fecha - 12/11/2024&lt;/span&gt;&lt;/div&gt;&lt;div&gt;&lt;span style=&quot;background-color: transparent; color: light-dark(rgb(51, 51, 51), rgb(193, 193, 193));&quot;&gt;&amp;nbsp;&amp;nbsp;&lt;/span&gt;&lt;/div&gt;&lt;div&gt;&lt;span style=&quot;font-weight: normal;&quot;&gt;&lt;span style=&quot;background-color: transparent; color: light-dark(rgb(51, 51, 51), rgb(193, 193, 193));&quot;&gt;Cliente = ( idCliente, nombre, apellido, DNI, telefono, direccion ) &lt;br&gt;Venta = ( nroVenta, total, fecha, hora, idCliente (fk) ) &lt;br&gt;DetalleVenta = ( nroVenta (fk), idLibro (fk), cantidad, precioUnitario ) &lt;br&gt;Libro = ( idLibro, titulo, autor, precio, stock )&lt;/span&gt;&amp;nbsp;&lt;/span&gt;&lt;/div&gt;&lt;div&gt;&lt;br&gt;&lt;/div&gt;&lt;div&gt;Resolver 1-2-3 con AR&lt;span style=&quot;font-weight: normal;&quot;&gt;&amp;nbsp;y resolver 1-2-3-4-5 con SQL.&lt;/span&gt;&amp;nbsp;&amp;nbsp;&lt;/div&gt;" style="text;whiteSpace=wrap;html=1;fontStyle=1;fillColor=#f5f5f5;strokeColor=#666666;fontColor=#333333;align=left;fontFamily=Comic Sans MS;" vertex="1" parent="1">
          <mxGeometry x="18840" y="1200" width="1000" height="150" as="geometry" />
        </mxCell>
        <mxCell id="urwxPss4SStaSpPDpani-23" value="&lt;b&gt;1. Listar todos los libros cuyo precio es mayor a $2300.&amp;nbsp;&amp;nbsp;&lt;/b&gt;" style="text;whiteSpace=wrap;html=1;fillColor=#f5f5f5;fontColor=#333333;strokeColor=#666666;" vertex="1" parent="1">
          <mxGeometry x="18840" y="1350" width="1000" height="40" as="geometry" />
        </mxCell>
        <mxCell id="urwxPss4SStaSpPDpani-24" value="&lt;b&gt;3. Listar nombre, apellido, DNI, teléfono y dirección de clientes que realizaron compras solamente durante el año &lt;br&gt;2022.&lt;/b&gt;" style="text;whiteSpace=wrap;html=1;fillColor=#f5f5f5;fontColor=#333333;strokeColor=#666666;" vertex="1" parent="1">
          <mxGeometry x="18840" y="1590" width="1000" height="40" as="geometry" />
        </mxCell>
        <mxCell id="urwxPss4SStaSpPDpani-25" value="&lt;b&gt;2. Listar todas las ventas realizadas en agosto del 2023.&amp;nbsp;&amp;nbsp;&lt;/b&gt;" style="text;whiteSpace=wrap;html=1;fillColor=#f5f5f5;fontColor=#333333;strokeColor=#666666;" vertex="1" parent="1">
          <mxGeometry x="18840" y="1470" width="1000" height="40" as="geometry" />
        </mxCell>
        <mxCell id="urwxPss4SStaSpPDpani-26" value="&lt;font style=&quot;color: light-dark(rgb(0, 0, 0), rgb(255, 255, 255)); background-color: initial;&quot; face=&quot;Comic Sans MS&quot;&gt;&lt;font style=&quot;font-size: 24px; background-color: initial;&quot;&gt;π&lt;/font&gt;&lt;font style=&quot;font-size: 18px; background-color: initial;&quot;&gt;&amp;nbsp;&lt;/font&gt;&lt;/font&gt;&lt;span style=&quot;background-color: transparent; color: rgb(51, 51, 51);&quot;&gt;titulo, autor, precio, stock&lt;/span&gt;&lt;span style=&quot;background-color: transparent; color: rgb(51, 51, 51);&quot;&gt;&amp;nbsp;&lt;/span&gt;&lt;span style=&quot;color: light-dark(rgb(0, 0, 0), rgb(255, 255, 255)); background-color: transparent; font-size: 18px;&quot;&gt;(&amp;nbsp;&lt;/span&gt;&lt;font style=&quot;color: light-dark(rgb(0, 0, 0), rgb(255, 255, 255)); background-color: initial; font-size: 24px;&quot;&gt;σ&lt;/font&gt;&lt;span style=&quot;color: light-dark(rgb(0, 0, 0), rgb(255, 255, 255)); background-color: initial;&quot;&gt;&amp;nbsp;( precio &amp;gt;&lt;/span&gt;&lt;span style=&quot;background-color: initial; color: rgb(51, 51, 51);&quot;&gt;&amp;nbsp;&quot;2300&quot; )&amp;nbsp;&lt;/span&gt;&lt;span style=&quot;font-size: 18px;&quot;&gt;(&amp;nbsp;&lt;/span&gt;&lt;span style=&quot;color: light-dark(rgb(0, 0, 0), rgb(255, 255, 255)); background-color: transparent; font-size: 18px;&quot;&gt;Libro&amp;nbsp;&lt;/span&gt;&lt;span style=&quot;font-size: 18px;&quot;&gt;)&lt;/span&gt;&lt;span style=&quot;color: light-dark(rgb(0, 0, 0), rgb(255, 255, 255)); background-color: transparent; font-size: 18px;&quot;&gt;&amp;nbsp;&lt;/span&gt;&lt;span style=&quot;color: light-dark(rgb(0, 0, 0), rgb(255, 255, 255)); background-color: transparent; font-size: 18px;&quot;&gt;)&lt;/span&gt;" style="text;whiteSpace=wrap;html=1;verticalAlign=middle;fontFamily=Comic Sans MS;" vertex="1" parent="1">
          <mxGeometry x="18840" y="1390" width="1000" height="40" as="geometry" />
        </mxCell>
        <mxCell id="urwxPss4SStaSpPDpani-27" value="" style="rounded=0;whiteSpace=wrap;html=1;fillColor=#FFCCE6;strokeColor=#000000;" vertex="1" parent="1">
          <mxGeometry x="18800" y="1200" width="40" height="560" as="geometry" />
        </mxCell>
        <mxCell id="urwxPss4SStaSpPDpani-28" value="" style="rounded=0;whiteSpace=wrap;html=1;fillColor=#FFCCE6;strokeColor=#000000;" vertex="1" parent="1">
          <mxGeometry x="19840" y="1200" width="40" height="560" as="geometry" />
        </mxCell>
        <mxCell id="urwxPss4SStaSpPDpani-29" value="&lt;font style=&quot;color: light-dark(rgb(0, 0, 0), rgb(255, 255, 255)); background-color: initial;&quot; face=&quot;Comic Sans MS&quot;&gt;&lt;font style=&quot;font-size: 24px; background-color: initial;&quot;&gt;π&lt;/font&gt;&lt;font style=&quot;font-size: 18px; background-color: initial;&quot;&gt;&amp;nbsp;&lt;/font&gt;&lt;/font&gt;&lt;span style=&quot;background-color: transparent; color: rgb(51, 51, 51);&quot;&gt;nroVenta, total, fecha, hora&lt;/span&gt;&lt;span style=&quot;background-color: transparent; color: rgb(51, 51, 51);&quot;&gt;&amp;nbsp;&lt;/span&gt;&lt;span style=&quot;color: light-dark(rgb(0, 0, 0), rgb(255, 255, 255)); background-color: transparent; font-size: 18px;&quot;&gt;(&amp;nbsp;&lt;/span&gt;&lt;font style=&quot;color: light-dark(rgb(0, 0, 0), rgb(255, 255, 255)); background-color: initial; font-size: 24px;&quot;&gt;σ&lt;/font&gt;&lt;span style=&quot;color: light-dark(rgb(0, 0, 0), rgb(255, 255, 255)); background-color: initial;&quot;&gt;&amp;nbsp;( fecha &amp;gt;=&lt;/span&gt;&lt;span style=&quot;background-color: initial; color: rgb(51, 51, 51);&quot;&gt;&amp;nbsp;&quot;2023-08-01&quot; ) and (&amp;nbsp;&lt;span style=&quot;color: light-dark(rgb(0, 0, 0), rgb(255, 255, 255)); background-color: initial;&quot;&gt;fecha &amp;lt;=&lt;/span&gt;&lt;span style=&quot;background-color: initial; color: rgb(51, 51, 51);&quot;&gt;&amp;nbsp;&quot;2023-08-31&quot;&amp;nbsp;&lt;/span&gt;)&amp;nbsp;&lt;/span&gt;&lt;span style=&quot;font-size: 18px;&quot;&gt;( Venta&amp;nbsp;&lt;/span&gt;&lt;span style=&quot;font-size: 18px;&quot;&gt;)&lt;/span&gt;&lt;span style=&quot;color: light-dark(rgb(0, 0, 0), rgb(255, 255, 255)); background-color: transparent; font-size: 18px;&quot;&gt;&amp;nbsp;&lt;/span&gt;&lt;span style=&quot;color: light-dark(rgb(0, 0, 0), rgb(255, 255, 255)); background-color: transparent; font-size: 18px;&quot;&gt;)&lt;/span&gt;" style="text;whiteSpace=wrap;html=1;verticalAlign=middle;fontFamily=Comic Sans MS;" vertex="1" parent="1">
          <mxGeometry x="18840" y="1510" width="1000" height="40" as="geometry" />
        </mxCell>
        <mxCell id="urwxPss4SStaSpPDpani-30" value="&lt;div&gt;&lt;span style=&quot;color: light-dark(rgb(0, 0, 0), rgb(255, 255, 255)); background-color: transparent; font-size: 18px;&quot;&gt;clientes_2022&amp;nbsp;&lt;/span&gt;&lt;span style=&quot;background-color: initial; font-size: 20px;&quot;&gt;&amp;lt;&lt;/span&gt;&lt;font style=&quot;background-color: initial; font-size: 16px;&quot;&gt;==&lt;/font&gt;&lt;span style=&quot;color: light-dark(rgb(0, 0, 0), rgb(255, 255, 255)); background-color: transparent; font-size: 18px;&quot;&gt;&amp;nbsp;&lt;/span&gt;&lt;font style=&quot;color: light-dark(rgb(0, 0, 0), rgb(255, 255, 255)); background-color: initial;&quot; face=&quot;Comic Sans MS&quot;&gt;&lt;font style=&quot;font-size: 24px; background-color: initial;&quot;&gt;π&lt;/font&gt;&lt;font style=&quot;font-size: 18px; background-color: initial;&quot;&gt;&amp;nbsp;&lt;/font&gt;&lt;/font&gt;&lt;span style=&quot;background-color: transparent; color: rgb(51, 51, 51);&quot;&gt;idCliente, nombre, apellido, DNI, telefono, direccion&lt;/span&gt;&lt;span style=&quot;background-color: transparent; color: rgb(51, 51, 51);&quot;&gt;&amp;nbsp;&lt;/span&gt;&lt;span style=&quot;color: light-dark(rgb(0, 0, 0), rgb(255, 255, 255)); background-color: transparent; font-size: 18px;&quot;&gt;(&amp;nbsp;&lt;/span&gt;&lt;font style=&quot;color: light-dark(rgb(0, 0, 0), rgb(255, 255, 255)); background-color: initial; font-size: 24px;&quot;&gt;σ&lt;/font&gt;&lt;span style=&quot;color: light-dark(rgb(0, 0, 0), rgb(255, 255, 255)); background-color: initial;&quot;&gt;&amp;nbsp;( fecha &amp;gt;=&lt;/span&gt;&lt;span style=&quot;background-color: initial; color: rgb(51, 51, 51);&quot;&gt;&amp;nbsp;&quot;2022-01-01&quot; ) and (&amp;nbsp;&lt;span style=&quot;color: light-dark(rgb(0, 0, 0), rgb(255, 255, 255)); background-color: initial;&quot;&gt;fecha &amp;lt;=&lt;/span&gt;&lt;span style=&quot;background-color: initial; color: rgb(51, 51, 51);&quot;&gt;&amp;nbsp;&quot;2022-12-31&quot;&amp;nbsp;&lt;/span&gt;)&amp;nbsp;&lt;/span&gt;&lt;span style=&quot;font-size: 18px;&quot;&gt;( Venta&amp;nbsp;&lt;/span&gt;&lt;span style=&quot;font-size: 18px;&quot;&gt;)&lt;/span&gt;&lt;span style=&quot;color: light-dark(rgb(0, 0, 0), rgb(255, 255, 255)); background-color: transparent; font-size: 18px;&quot;&gt;&amp;nbsp;&lt;/span&gt;&lt;span style=&quot;color: light-dark(rgb(0, 0, 0), rgb(255, 255, 255)); background-color: transparent; font-size: 18px;&quot;&gt;)&lt;/span&gt;&lt;/div&gt;&lt;span style=&quot;color: light-dark(rgb(0, 0, 0), rgb(255, 255, 255)); background-color: transparent; font-size: 18px;&quot;&gt;clientes_fuera_2022&amp;nbsp;&lt;/span&gt;&lt;span style=&quot;background-color: initial; font-size: 20px;&quot;&gt;&amp;lt;&lt;/span&gt;&lt;font style=&quot;background-color: initial; font-size: 16px;&quot;&gt;==&lt;/font&gt;&lt;span style=&quot;color: light-dark(rgb(0, 0, 0), rgb(255, 255, 255)); background-color: transparent; font-size: 18px;&quot;&gt;&amp;nbsp;&lt;/span&gt;&lt;font style=&quot;color: light-dark(rgb(0, 0, 0), rgb(255, 255, 255)); background-color: initial;&quot; face=&quot;Comic Sans MS&quot;&gt;&lt;font style=&quot;font-size: 24px; background-color: initial;&quot;&gt;π&lt;/font&gt;&lt;font style=&quot;font-size: 18px; background-color: initial;&quot;&gt;&amp;nbsp;&lt;/font&gt;&lt;/font&gt;&lt;span style=&quot;background-color: transparent; color: rgb(51, 51, 51);&quot;&gt;idCliente, nombre, apellido, DNI, telefono, direccion&lt;/span&gt;&lt;span style=&quot;background-color: transparent; color: rgb(51, 51, 51);&quot;&gt;&amp;nbsp;&lt;/span&gt;&lt;span style=&quot;color: light-dark(rgb(0, 0, 0), rgb(255, 255, 255)); background-color: transparent; font-size: 18px;&quot;&gt;(&amp;nbsp;&lt;/span&gt;&lt;font style=&quot;color: light-dark(rgb(0, 0, 0), rgb(255, 255, 255)); background-color: initial; font-size: 24px;&quot;&gt;σ&lt;/font&gt;&lt;span style=&quot;color: light-dark(rgb(0, 0, 0), rgb(255, 255, 255)); background-color: initial;&quot;&gt;&amp;nbsp;( fecha &amp;lt;=&lt;/span&gt;&lt;span style=&quot;background-color: initial; color: rgb(51, 51, 51);&quot;&gt;&amp;nbsp;&quot;2022-01-01&quot; ) or (&amp;nbsp;&lt;span style=&quot;color: light-dark(rgb(0, 0, 0), rgb(255, 255, 255)); background-color: initial;&quot;&gt;fecha &amp;gt;=&lt;/span&gt;&lt;span style=&quot;background-color: initial; color: rgb(51, 51, 51);&quot;&gt;&amp;nbsp;&quot;2022-12-31&quot;&amp;nbsp;&lt;/span&gt;)&amp;nbsp;&lt;/span&gt;&lt;span style=&quot;font-size: 18px;&quot;&gt;( Venta&amp;nbsp;&lt;/span&gt;&lt;span style=&quot;font-size: 18px;&quot;&gt;)&lt;/span&gt;&lt;span style=&quot;color: light-dark(rgb(0, 0, 0), rgb(255, 255, 255)); background-color: transparent; font-size: 18px;&quot;&gt;&amp;nbsp;&lt;/span&gt;&lt;span style=&quot;color: light-dark(rgb(0, 0, 0), rgb(255, 255, 255)); background-color: transparent; font-size: 18px;&quot;&gt;)&lt;/span&gt;&lt;div&gt;&lt;font style=&quot;color: light-dark(rgb(0, 0, 0), rgb(255, 255, 255)); background-color: initial;&quot; face=&quot;Comic Sans MS&quot;&gt;&lt;font style=&quot;font-size: 24px; background-color: initial;&quot;&gt;π&lt;/font&gt;&lt;font style=&quot;font-size: 18px; background-color: initial;&quot;&gt;&amp;nbsp;&lt;/font&gt;&lt;/font&gt;&lt;span style=&quot;background-color: transparent; color: rgb(51, 51, 51);&quot;&gt;nombre, apellido, DNI, telefono, direccion&lt;/span&gt;&lt;span style=&quot;background-color: transparent; color: rgb(51, 51, 51);&quot;&gt;&amp;nbsp;&lt;/span&gt;&lt;span style=&quot;color: light-dark(rgb(0, 0, 0), rgb(255, 255, 255)); background-color: transparent; font-size: 18px;&quot;&gt;(&amp;nbsp;&lt;/span&gt;&lt;span style=&quot;font-size: 18px;&quot;&gt;clientes_2022 -&amp;nbsp;&lt;/span&gt;&lt;span style=&quot;font-size: 18px; background-color: transparent; color: light-dark(rgb(0, 0, 0), rgb(255, 255, 255));&quot;&gt;clientes_fuera_2022&amp;nbsp;&lt;/span&gt;&lt;span style=&quot;background-color: transparent; color: light-dark(rgb(0, 0, 0), rgb(255, 255, 255)); font-size: 18px;&quot;&gt;&amp;nbsp;&lt;/span&gt;&lt;span style=&quot;background-color: transparent; color: light-dark(rgb(0, 0, 0), rgb(255, 255, 255)); font-size: 18px;&quot;&gt;)&lt;/span&gt;&lt;/div&gt;" style="text;whiteSpace=wrap;html=1;verticalAlign=middle;fontFamily=Comic Sans MS;" vertex="1" parent="1">
          <mxGeometry x="18840" y="1630" width="1000" height="100" as="geometry" />
        </mxCell>
        <mxCell id="urwxPss4SStaSpPDpani-31" value="" style="shape=image;verticalLabelPosition=bottom;labelBackgroundColor=default;verticalAlign=top;aspect=fixed;imageAspect=0;image=data:image/png,iVBORw0KGgoAAAANSUhEUgAAAOMAAABZCAYAAADM35NfAAAAAXNSR0IArs4c6QAAAARnQU1BAACxjwv8YQUAAAAJcEhZcwAADsMAAA7DAcdvqGQAACLRSURBVHhe7V33fxfVtn1/A4L03nsn9N4TSCghxBCSENKANAgQQnoPIVTpSJHeQUoI6NOriIJ6n15RwAaoCFIUpIOy3147mTiZ7/l+Uy4lyPlhfQIzZ8/Md+ass/c+ZZ3/qVChAmloaDx/aDJqaJQTaDJqaJQTPFUyNq1Zl1rXaUhdG7agYa26KNGxflOlLVC7SnUa0KyD0q5NnUZKG6Bd3cZKG6B5rXpKG8CpQXOlDdCwem2lDdC9USulTa/GbahqpcpKGwDvR2UHVH+1itIGaFGrvtIGeLViJaUN4Nyys9IGUJU3oCpvQFXegKq8AVV5A6ryBlTlgVdeeUVZHhjSopPSBqha6VWlDdC/WXsp07hGHXJp1VnqMlDplYo213kSeCpkPBKQTpTzdolwPHSB/EDrNVrWbkBnp69S2gBHgjKoEb8kq13fpu3oasJWpQ2w2zeealWpZmM3rmM/up++X2kDLBgRovwI4T1d6WHmQaXNo4wDNL3vaBsbIKrPSLqbYf9+WS7+Sru0Id70MCtXaQPEDfBU2i1xC6bHc48qbYDIXiOUdps9o5TlDYR0c1ba5folKMsb8HUaqLT7OGSOsryBse17K+1OhS9SlgfuZR7i+w1Q2p2JXKq0AX5N2kERvdzobPS6IsfvJe+ia7Eb6f3gLArn86rrlgVPhYz7/JPpZNgiQR6TZrtvnBJbfWJp5oCxVLdqDZtr1KtWg3JcA5V2W8bPpvA+o6hG5ao2dq2YxCvcw5R2m71jKKjHMKrCraHVrjN7xdUekUq7jd6zyLfLYKrIra/VDuRfyxVWZbeKj3dr3NrGBnBhL7XBa6bSbr1XNI1o011p596up/wOld06vt6Qlk5KOx+ujNt8bG2ANa/NkN+hsgvp7qK0Ad7wnE497fy+ab1HKm2A1fxeEC2p7OK4PqhsgJVjp1EnO5FU2pDxShvgda4PbTlaUtllOvsqbYAcboAR9SQM9aEd3IgfCcoUnGYn8X30Wrqdto++53+rrlsWlImMaA3/d3KOXfdfv1pNJkVDAVx8narVlUAY6iisAmnUdtWoUkV1qADC1GSSquzgEe2FGBX5eK3K1dR2fFxFRADXw3VVdtVetR+i4vnxO1R2aGReqaC+H94X3pvSzkFoW5ntVDaAo5DYkV01B3b2vh3g6L0gbFTZAI5CfpxT2QCqxtcAnkVlAxh2+e+ghtRloEO9JuRUvxn14Qasi51GpSwoFRkbVK9FW7kVfZydR7e4VZhhJwTT0HiZgYYbkUjyYG+HDZ0VJSYjOlremzRXYubvZ62nWA4n4IFUZTU0XmY0qFaL9nHOjBx95/hYSZ1U5awoERnRc/nZ1KX015zDdDQw3W5eoqGhkZ+6oE/gQvQaesic2cGEbF6rvrKsGcWSERc5FrZQPOIXUSupPcfLqnIaGhp/Azl/x3pN6W7idvpr7hFKHuqrLGdGsWQE+dAj+u9pyx2OCWpoaNiid5O2dDV5Fz1I22e3B9lAsWREj1Kn+s2Uww8aGhqOgZ7YuEFedCv9LfqOw1bVGLeBEnfgaGholA1NatalN9zD6T2OMB0N5WkyamiUE2gyamiUE2gyamiUEyjJiOlsB33iKGWwt805DQ2NpwMlGb069qXrKbvpm6lLbc5paGg8HSjJGNt/LN3PPEh5ExJtzmloaJQdo9v3prmugTIR3XpOScb5IycT5Ryl9WMibM5pPB+8WrEiTekxjEa37fHUFrfaA7rjU4d400chc6hP07byLKpyGsVjuXs4/ZmdR4MVU0ptyIgV04tGh8n0t2A7C0c1bIElUViBP4Zbvrd84+hm/BY6zJFFG8vCaXtLsczAVCprufGd+hNlH2Hk0bFJ2TSh6xDq0biNLMIuzcoAM/DM6B/A4u62dRvJqhwV0bBs6Hz0GqkTsrg2fT99Mnk+zeMWvl/zjjJl0tEyJY2/sdw9n1sjuFG1nrMhI9Z3rX1thiZjCYHKjOUyWVwxv5y6jGhOHuMwXUnYSldiN4l8A8qBXAObd5A5iqj41usYgNdza9ONUpz9ZGGrcXwgV/rfk3cVEgL4KyuXzs5YTavHTqPI3iNlphQaU/P1rMBztGLyYdFwlmsQHQpIpXPR6+hS7EZ6JyiTJnYdKrNGzDZNmIw/zlpHf2Ydop+5HBbWXkvYJkvp/mKcmracFo4IYa/d08ZWoyjSXCbItwvhKMd6zoaMdapUp+2+8WIwSsFejXxgEez0PqPo07BF9FsBSf6ak0vvcoUe7zSQ+jVtJ/o9xjIzLBje4jldKnDyoHE21zOARbIrOE3ACpm93jFUrWBBLSp5TH8PupW6l2juUTrLBPgl5s18b8n3vpdxgE7PXEMbmZgta/+9QgDk8+zQh/L8Eult/2Q6xqHmf6avklXqsLPik9CFVI8bGMMe3nPe8AA6w6QP6+Umuj7dGrak/k3bk0fHvrSBf9N9XGvuEbrEBMWzO9ILetlRKjJiDiokBh5xpUEIZD3/sgORAxZV/xG3RV4q1qw9YA91iknZs3Eru54J7/LDKfPpcdZh9padlWUMQHflNoeCZyOXFJkTPL5TP7qVspt+jVlPjWrkV3iIWs0fNpGuxm6W58Dz/DhrPQ1q0UnCXTzvuoJIB8AKgvsZ++mof4pIZhieDGXjB3hyXpgl3t64J0LUO+zl76W/RaE9XJVhNsi3bkwEPcg8JKTc5ROr7KDQqEChHMHgO6QpVnEoO3B6N2ljV2joZQcUwxCq4YU+yDxIW71m2tWBMQNRxuX4rZxr5TBB7Od4IMXMvu50lz3d9+z9DNIBIOmffM/tXtFFbACQBKsC9o6fLV7vdNRK+Y7I5eZzOApPe5OJnM0tMzznKxZ7e6hfrRZdm72BG5FDlDDQy2Hn0fBWXelOyh56xMT1sCMc9bKj1GTUsA8sI/ssYjG/0KMSGq5yDy82gkAFTh3qI0SK7jdGWcYAwsLUwePFy5xmz2iEfCBpNoeLj/kagZzXWe0AdL4MbeFElwrC13nDA8UOymgIpY/JROXS9YSiJ/XjkGx6xPeN4rAcuevasVOZbL3knFGucqVKFNzNhW5zGI2wdaQdQa2XHZqMTxDwQM4tnThU5ArPL/URe5zfknbSWial2YuZAe+01zeB/mSPMYgrs6qMAfSMrh4dyp4sj96dmCphJo4j/IWUA3EDkMkfEtKSEEQK6jZU8sRvpi6jKwnb6SYTAaHoFfbCw1rndx7BK//K+dzRCclF7oUQ1bV1V9rE9heiVgl+mLaCsp39CkkLD/peQLqQcTbnrB8EZkgofJt/yy/Ra8XmR85Bf+Ww/S6XeczvAzpJOkxVo9Rk7NKoJQ1o3sHmuMbfAElQOU9zKImKiReMLv91HlOpR6NWRcI5dMq8w17pdyZEh3qOF2hjeORfBVpDK0dNKTwO5bezHHrieBEwMf5ECMoe6SIT8DQT5L2QOTSSCQjFO9h6tu9DVxN30KmIJZQ4ZDxlDwugXP9kItGJPSoTPC4nbqcLcZvoEv/F7zB0RtHxdDZyqXQcBbFHBlEfcMhqfgaEwBAo+5Zz1aRBXlobyQFKRUYZ2vCaQQ85yVeJC2sUBTo4IGQMzdJLcZuFHD9xjjWLw1FjISlyxC8iXqdfYjZQy1qOQ1ooV19G59CcXOkFNY53qNuEbjGhMM54gb3y28FZoh+b4xYsc4hBFEhn4nnMnUjw5BAoRgeMmUCPOQw+EbaIlrFHRy8thlPQU+raupt0UKFjCPYGGe8w2dCPAJnIRXxPowcZ4fQO9oSTewxzOGSjkY9SkRG9d7snJIoBRHWs5zXUqFG5iggB7/SOYU+VR3+k7hHPiVAQDdy/wxfTJSZpcfllGnseeJpzM1aLyphxHKLGxB7sAHs0dBiBdNBdVfVumoEcNGnQOBmTxDe9z2HuZm5sEcLiWYobrDfI+CjzgAgT4344FtrLla5D34VzU3hy85iohn1oMj5BIAQz8jgVULlXjwoVD3nAP4UaVq8lhNzqPUvyPY92vZR26GgByW4l7ZCwM8Yi0x/SfZh4xcVuIaWa7YKy8GSP094iN/Z6joSOVUB9QG5odOCYyQ8x359mrpEc9QyH0AjBi2scXnbgHWUxEc1DVgY0GUuBZhy6fcDh4dZx0TJsoKp4ICrCPhAHHgMb7aDcjL7uMr73aehCGx1N5JSj2/Wk86j0TMTDE1Nk1ou5zNIRIWUiIzqEtrC3vp+yW8iOjhVIb0JoDDOCMEMI4TB6aL079ZdQ1whRDfuvwl+XjpkUzjetQxvwrrt9YukO/7Zr8VtoQudB8nvMZTRKBk3GUqBz/eZ0N3mnDBt8zWHkvglJtJ3zpW0F2MEkPRSYTtc4t8OmNokcHmKmDmwhA/95xBKxPTZlnohAw1MFdh1Ce3zi6Gfkm/zOP2QCowPIOnlgn/dsGVBfyTmeI89sBfLW3IA0Dn1z6f3Q+fT2pGw6yc/x2dRl9APnnhf5vjc4/8OwCzppLszeSO8HZRQSEp1AH/D/4emXjQ4rnCRgBhqODOcJEgpfit1EAV2GSHhsLafhGJqMpQAIgs6Ne2mmqWRcSYsAx5hwqYO9C4kothyGYg7r3QJbzNx/wASByK1he5y9bqPqtjtrAUf8ksTuKBOjNMMG6HD5l6Odnfi+j1L20PWYDZTrl0jzhk2k1zr0LeL1l2EVD5dbyuG3iozAq0zaBcMDpBw25qlZ2b4KmoYaNmQ0z0019qfTKApMF4vo6Ur7x8fSsZBs+jB8EX3I4SfmfqJCOhJ6xt6R+9gTnoxcQp+wdzoR8TrtHjdLejMrMmFVNgB6MjFBGyGwPUKoUJkbhNkDPemjKfPpi+kr5X77/RJkNg+epSQh79gOvSV0duGQFo2KqgwAAqcM8aYEjghK47018mFDRoQX4zoPpAWjpkiraj2v8d8DlRY9kgghjYngxQEERJ7qSHfTHhBqYhAfoWdZl1tpPH3YkBFAkl6a1ldDQ6NkwD6ROS7+RSbjG1CSUUND4+nA02mApIChPW13PNZk1NB4htATxTU0ygk0GTU0yglKTUZM2dGSGxoaTx6lIiO6vteOnSarNvTGqBoaTxZ6oriGRjmBJqOGRjkBxhkh/FUiRXFNRo2yAnN39WSRskOTsRhg19mNnlGyfKheVdtZE88CWJI0sFkHih/4Gr05JlK0bPZ4x8jSp/JS+dHSYwXLgYmpohmLY5hOuXjkZDrglyhbEzRQzDrR+Bv/ODJi3idUy6xLkKxAOUySRocVKrs9CcJJXIkMoWAAqxt2josm93a9ZJ6oo22hAfPqB5Q17gcpDvzbel+jDCQS0aN9wDfO7iqRi7GbCifz4z7GJG78GxO18+9TWa7niLSww9xVAO/EvNqkpBja0kkUDm6m7qHgbkPlmqhL+yck0eO5+e8PiuRH/JOoS6MWcg9Hk84dAe8Mz4nfBsHlFrUayFxf/MaSSlCWR9iQEa3ZNp84eXldGrQocu55AivUIe2gmtNnAJPcQ3u60pZxs4Qs1vNYweDUoBn5dB5Iyc6+dDQwXVS5/y98Mc13C1L2HmNRMMiIhcG/xG+hywlbRbpCpBpTdtNmJuaELoPEg5rtQAhoyiQO8aaJPVzIv7sLbWDPcZUJBAmOH6PXiabNXJcJ8tuqcsXy6tiH1rIXvgjluYIKjHudjV5LeSFzaC97mJ1e0eKBdrFn3OMTK9+oWc16FN3fg8L7jiK/bs6U5uJPF9gGujtnolbQzYTttGHsNBuhKDRYWGg8md/ZyjERgryAVDo5aa4QyVzWEfBbEwd6iWrctaSdsgQLx0GMzg2a03rPafQNP49sfVDQoHw0eR43dMNFgMt6PUdoXbshZfI7+2hyjizGxlYKuOaj1L2inufVqZ80Pirb8g4bMqLVGcEVOazv6CLHnyfQgvoxgb6etoK2vDZd9GZU5SDie4Mr+AOuwOG93OSjRPdzpw0ekbTOPYJ2+sbT59OW0yMoX6NSmPAw8yAlDvIqsigWK/LfD8ygj7lyYm8KyBqOaNONJnYdQqlcIc5OXyVEhZrauyHZ4skMT4ewDVIb0Iix3qsQ2Xn0eeh8UQPo0ag13TT20mAi/jz7TZrnFkwB7GV6N2krLb/xXADug+Vu+JszbKJcy+b6Bvh62A6gFVdk8zX6NWsni5lFCdxU/nFWrrxvc1lHaFS9Nh0NSBPbi9xg4T2Zz6MRxO5VaUN9+HdtpNv4nUxI6M4emzJfxLusv0+FRjXqsGdNoYcF6nTwxKgT/xucSZf4urgmGgNIVzpqtMsrbMgIFBfiPWugwiH3wMv+iz+gkZNYsWh4oLS+m9i71OGWHZMXfp61XuwkVOK/d5J30wIu16VhS/m4DRlt6zWmz7hSZIle6N/hHFTVYPMJexjovZjvBdLWq1aDPNmbnZ+xWirHpQLZCXgKhIhpnGeen76S8jhU+xqb4jAxf5r5Bg1u4URN2SPg3iAtyuN5vwhbKKTaxA1OMyZoSfNBbG77M1/3g6BM9mo5cp8f2bt6Ow2gZrXryX3g6QzpRgAe6WfsLMW/78SUBdS9cSsa1a4nfTMzf7cpbFdglt+wBzSUkOuAFCTsLrDnh3SHbbkKovF6nz3YDG4g0RAcx6JnLLIuCF/Ne4RYAbLma7YWNG783LEDPfl3VRePD/JN7T1SNgdCA7iZCYloQ3Wt5wnUSejeqiIPJRnLI7Cw9cfZG+RDgCTW8/iQl7kCXuAygwsqA/RZzjAZ8OHOccUL5bCoNJqe8K643w8x66XyqMoAyP9y/fIXZGMRr7VVRuMWydd6xA3JFg4xzefMgPQ+8qp09iDF5aL2gI4e4pA6jysuPJaqDPLRfwVliNrAQf/kQhLgOaEABzHia1ypx5ZAoh+CW0c43MeGPnjP0E7t1aSNTTmQEXKOeAfLR+brweI3Qp/1NIfS9/ien0cuYdvWUtZsi1wWSnuPmWTY9uATbrSi+DkNoWUDaLQh+YGG4Vb6W6LeDqVzc5nnDS+OOFBPwnvb1uEXhozwIDs5F0TLiFbPXFnxERDqQMxp3/jZhQtw0Zpu4soPiUN7qmyO4NyyMxGHbF9xOIpQEWSeyZUCYaW5HCokVLTxko8zGc27OAHwfNix6k+uSI7k/Z8EGSHvD3HiDRwd1FJIX+BZJnHI/UfaPgnxrP0C0N+5Fr9VRInRA2o+Z4XkihzaP+CyJzmHe8y/76sZb8jWdNayZjJmcARiPgfZyQWuQXSdG4Bv2b6/peFD+vFl5FIh+1rOa/G+zefNQF0QQTD+bp+zTUf2RKpyzwv/iIniCIdQkbHT0pfhi6XTwjgHD/gBwjPOfaAvahxHqLh0xCQiriyopMZxoB6HCQibdnlFi/YMcIhzyh4crhllQEBUbJAROePvKbvpPt/jDP8fu/jC5gTnXF9PX02P+Lkg7AtvqmqxUzlkxXNAwsJ8zgxHZKxTpQb14efBpqnITe3JWnh17CfXgJaNSlIDXnsP/06ovYGU1pQEkcM7E5Pp99Q9EnKbz1nh3MqJbnKO9i2HtgiVb3GYXhIyRvVxtzmP+8YO8OR8MJeOT55X2JmGdxfd113y8rPceJi/uz0gN76fvFPEpEuyKdGzxD+CjABaTMjY/5KwTZS3cQytc0g3F1E2Q75klrFAhV0+OlT0ShO4BY/u58Gk8KEzaGXRscItLUShbvGHBu5zJf6JK5MRz49q21NeHHRjsMPStZj8MLkQbI/NQhHWXeUP79qmqzLfBrFWeUTS7aRd0rtoPW8AZERnC3oKw3q6kkvrLrR05CS6js6Jgnsa9wvr4aq8BvLeOxyiGYLD1vPokQZ5sFcIwlXreQMgh72+AxCrM3vU89wooRMGM0qgEHcjdqMDMuZHB39xYwaBK+t5AI3YWvcwUZmDB8QzoBNuPefQeNdxFi1ZewAZ7zEZPwpdIA21qszzQqnJ2IfzjqByuCUcBt3PcF6BvCFuwFjpRAFxMEQBb4CW3lweitt7C8ZMzbjBHu6D0PkyLJEw8DUa3rqr6IeiskzlWL5SQSU0yHiSyQjxJvQSIvSR/IiP/86eYA1XHohFOepOh4fKnZhC55gECMlUZQAho+k5BUxOdEp8HL6ItvvEin6qf5dBXFFtQ1BUeIhbXeOKCE9lPQ9Io8KN2Ych2crzJQFy0V2cDkD+cRsTBe8Zx27EbrJPRn6n2IYAQxErR4fZnDeA63wbtZIuMrGh0I73+qbXTAk7oS2rsjED7wDf8PGcPNrmHaPsKHmeKBUZkWdt5B+Byl2exhkBtPQLXQNlPOvAhCTJHfw4lLqX9hZ9zoSx5hIIyY6xlzEq9hUmT45bELm37yW9iQiBzOWtMMh4ij0AduvFsR4c9mBGCfJT6I0iZyquUwge+hNupd/lsNZRF34hGbni3UveTW9yHjqFw16EpW3qNLQJf63AQPqxwAw6x14a4lWqMujcuhTH4SS/L4TxqjLFYQanC8gp3+dQvWlB44Le5vv8Pn6M20TenfrZhNFGmoF9Ho/4Jzt895CERBgd3muEXGft2KgSe0bs94FcGJsRIToo7hs/a/yjJopjIJ2YfNe5dXfnlhIbimJcLHnwOJuwDF4IH+aLiCXUsEbtgmGEkn+ciV0Gy3tAztitUT4ZAVQQhIOoIBD/ncMkMttZgT0WMQi/hiuVKo8zIGRkr7t2TKQ0JAhvrT2LjoA8+AI/62n23lbVcgPYzOg4NwzomcRmOaoyjoD9GaGzeo/Tgnku/hTbfyzn2gl0pUCEWXZyZiItZg9utUVPJ2YT/cGNor1hEwzxfBO1ghukQzSlx3B5B+mcWuAbfxiU5bBBasCNMaYJIpT/iiOJJjWKH5p51vhHkREt3WFsZ8aVyRjoPcWE7G4iiwF4dlSSA/5J4gUwSI6ZMvCK6KFD/oT9EtFrCk+C2SgYoDbsZbMZvv4Ps9bbaMiCJFM4r0MnAVrxTV4zqIWdHYHhNX7n51joFlw4ZQt/rY2HQcZVHMaVZRYJiPYb3+ezyfMKe3RxH3NnEP6NnZGxqSk8O7xPSfbgx7MO4PTl8uz8fSkNIL+7kriDvTF/C34PmDEE9TPVxIwB/A7xLvFOsWWdcRzfFJ7fs2M/+iJ8sRD6M/6LThy8K2zMeil+q9jlDA+g5jXr8fH8d4fz6D13btVZBJ7x/qAvO6icbmmIRhL7bzapaZuuvHBkBAK7DZVZNnhGhIsIXVUhV7+m7eku54fnuAJhm7sdvvF0lEPF9zl0xeD2uVnrZI/8hxzSYJ7nCa4AEPc17FF5MCwCuf4xiqER5KwIITG9Dc+yyyeuyDZ6qMCYNymhdeYhCVWXjJhEr7uH0yrPKFo2JkJ6Rw1SGh0468ZOcxjOqgBCIf/FbJpfuIFYwR98MZMa91nJ1wvifNq4D74xvM1dJiTCzYMBqTIQjYnniAbQIZMzzJ9JO1pyOFR8hLcY34NH/Zh/B1TDM4ZPlPE/2KFR+3bqMulx9udrqBolRCY5/C7QA4v7Yyu9bOcJtMJjKn3M10ZnEAiH3lTk50aIiSgBQ1QgKfaSfDd4jmyPgKGXDGdf2sa5NGYvYfcuqKej0bDe+0XAC0lGzGI4xeEnnhG9oOh8UZWDx3vElQ3llOCP94A/4lmuRAf8Emgut7roNDDsm7MHvZe4ncm4XUlGABUc3ec3OfS6wXkeKjM6K7C3BqaanWeS38vMbzhQ0UC2wvvz/9cwYYxKZ+SM28bHSqeI9V4qIBTHMMsPsRuZWMYejLb32c0NhTl/QriM93ZiynyJMrDz1W9MpJtpe5nQByXUuxizQSo2hlTQ+QQviM1gm3KrDm9kvl51Dt3/E7ZAdqsyphXiHpgVcyIkm05xg/U156k/8/vAMBDGOZHXgUDyjHy/f4ctEu+I6MXak4tdoZePmiLfDOVBSgzsozHG/7HT8+IRwfLNDK/5ouGFJCOeETsrPZqTKx/aOuPFACYVH2cv+BNXgF+YUOdi1sukAB+n/vJx7XXdG0Co+A6HxBiXsw70W4EQ972ANPYSvaUyIJ+9lbyT7nBrf51zLGzvfTFuk1RK9MAi9EJ+ZL4G3jdC7/Qh4x3mlmYgvIZ3R+XE2CAq6GXOp89GLpMJ5WgcQB7DK1oBQmEMdte4aDofvY7Oc5h7nom3YuRk6tSgmXRO/YdJcpuffykfs7eiA9/kPHZWZlJhhg3yaoTKeZidww0DyG28C3yLnzjsPM+RyclJ2dLLivDN3jOagdwdc42/43ud5wjgy9CFMtneUS91eQK+q3QeKnLfF5KM+GgIi9CJAhKoyhhAjoSVKHgBxfVGPknU4kqMDgiEvXiPWMlQXIVBaNeubpNShagYhkHHCMJFhMzY2k1yrRJU7JIAHvAN9t74LfYm6BvAqhPseIWdtfDeUeE82vfmkDmMFrsGydgpvDG+RWnD8H8KRnGE9Ss3yuipt56zISNe0gZs7FmOyajxbFG54qslIjcaSeSuZVkP+bIgHmOtzK3IPqNsztmQUcZ1CuZZBpfDgX8NjRcZaQX9AiGKeb82ZERXOHrfYIA9Bq3nNTQ0yo5s10Dhlh/n8tZzNmQEsB2cJqOGxpPHtoIUsLtiAruSjL2atBVZBwySq85raGiUDejdx5Iz83i0ASUZNTQ0ng5uJW6nL6cuU/asazJqaDxDrHYPp8UjJikXF2gyamg8Q2Ac3176p8mooVFO4JCMGOgt6bQsDQ2N/w4OyQiXumrUFNGKUc3C19DQeHJwSEZZtZCym24kbBXZCVUZDQ2NJwOHZMSqhRXu4fRwzmE6FjJHVjqoymloaKgBcawjE1NpkVuQ8rwZxXbgdGnQXPZswKwBCPzYk3PQ0NAoCijTHQhIkzWbm1+brixjRrFkxHo3qFTfSdwumqUgJFZsq8pqaGjkA+suPwpfJE7seNhChxKdBoolowEs1L0Sm685k+5sK6ajoaGRv3g4uLuLqENgUfV3MW9Sx/olUzUvMRkB55ZOtNs3jsZ16q88r6HxsiN+oKd4wxupe2ib18wSExEoFRkRsmLxsWqhKQShcOPyJqeuofEs4d95EL0dlCECYKVV+CsVGR0BSmrfRa8VzUzIy383bRl9OjlHtFXe9IiUfQ1BYihi45gK0ERVXRtrLKHJorLZ7DlNxJ9UdtARxTipyg46NNZt3gxAFgLnVXZ4/laKGfeAU/1mtH5MhNJu+chJIqSlsuvbtC1t8JiqtMP+kvY+KrY4wO9X2c0b5i86oio77C4FJXCVHVTi7EliYO+NHdzaq+xwTXtj0dgwSGUDQKJDZQNgjw2VDYD3orIBkgeNU9oAEDZW2QCQmFTZGMj1S5A6/eusdTSjj3r/Uugf5ctxll725ImRsW3dxrR1/Gw6G72Ofpi9QST7IGL0Z1auYCefgzjSXSaqccwK6Emqrg3Fgbvp+5U2kGzMdim6q5GBqL6j6V6G2u5O2l6KsbMjVNJgb9H/VNlBEhCb4Kjs4rAjkx07IJ0/tlWHBx8OC06hyKayuRq/pXCLOzOQm+S4Bcsmryq720k7ya11Nxs7rBbY758sG8aq7K7HbyaVwDAkG3MLtlFQ2Z2f+Ybo3ljtEC19GvG60gaAsJTVBoCm7Vm+psoGuMSEUNlh1ykIkKlsgIt8TZUdtkH/I3Wv0sYAvhHqNDZkPczeD/pAqmuVFU+MjABacMjgYzNT7HyLPSggmAsMbtFRZvRA69I4ZgWk2VXXhfpbWM/hShu0dPY2N0Glgjanyg7iSPZUrbHWDEJSKjv8JlRMlV0nrniRvUco7QBsYW61QbSAioffobLxcRqg/OhIGSArGdVnlNIOz69SzQNhsJkp9hVR2cFTWaX5ATQa0DKdwQ2cyg7EV3lGNBpQylPZAOiHsNoASHuwX4jKBoDerMoOdXAC1z2VDTCuYz+lHaIBNPoqGwP4Rvj+4/i5nsZWc0+UjBoaGmWHJqOGRjmBJqOGRjmBJqOGRrlABfp/ZclDics0gLcAAAAASUVORK5CYII=;" vertex="1" parent="1">
          <mxGeometry x="19640" y="1210" width="190" height="74.5" as="geometry" />
        </mxCell>
      </root>
    </mxGraphModel>
  </diagram>
</mxfile>
